<?xml version="1.0" standalone="no"?>
<!DOCTYPE svg PUBLIC "-//W3C//DTD SVG 20010904//EN"
 "http://www.w3.org/TR/2001/REC-SVG-20010904/DTD/svg10.dtd">
<svg version="1.0" xmlns="http://www.w3.org/2000/svg"
 width="70.000000pt" height="70.000000pt" viewBox="0 0 70.000000 70.000000"
 preserveAspectRatio="xMidYMid meet">
<metadata>
Created by potrace 1.11, written by Peter Selinger 2001-2013
</metadata>
<g transform="translate(0.000000,70.000000) scale(0.100000,-0.100000)"
fill="#000000" stroke="none">
<path d="M545 638 c-45 -99 -75 -181 -68 -191 3 -6 1 -7 -5 -3 -15 9 -15 5 2
-35 l14 -32 31 54 c17 30 31 50 31 44 2 -34 11 -123 14 -140 2 -11 9 -55 16
-98 8 -50 16 -74 21 -65 6 8 9 0 10 -24 1 -21 3 -42 4 -48 1 -5 3 -19 4 -31 0
-11 5 -18 10 -15 5 4 12 0 15 -6 3 -7 5 1 3 19 -5 48 10 30 17 -22 4 -25 12
-43 17 -40 5 4 7 10 5 13 -2 4 -7 55 -11 112 -4 58 -8 116 -11 130 -2 14 -7
106 -10 205 -4 99 -11 190 -15 203 -6 16 -17 22 -39 22 -27 0 -33 -6 -55 -52z
m72 -260 c-3 -8 -6 -5 -6 6 -1 11 2 17 5 13 3 -3 4 -12 1 -19z"/>
<path d="M345 660 c-3 -5 -32 -87 -64 -182 -33 -95 -89 -240 -125 -322 -69
-156 -75 -172 -51 -140 14 19 14 19 15 -1 0 -18 3 -16 26 10 14 17 22 24 18
16 -4 -9 -2 -12 6 -9 19 6 100 164 153 298 26 63 46 109 47 103 1 -36 34 -123
45 -120 6 1 9 6 7 11 -2 5 3 4 11 -2 11 -9 13 -6 12 16 -1 15 0 19 2 10 2 -10
9 -18 14 -18 6 0 8 8 5 18 -2 9 -8 28 -11 41 -5 17 -4 21 5 16 7 -4 6 2 -3 16
-18 28 -42 167 -35 203 3 14 1 23 -3 20 -5 -3 -9 2 -9 12 0 13 -3 14 -14 5
-10 -8 -16 -9 -21 -1 -8 13 -22 13 -30 0z"/>
</g>
</svg>
