<svg xmlns="http://www.w3.org/2000/svg" width="30.265" height="37.471"><path fill="#FFF" d="M30.262 16.894c0-.25-.036-.479-.096-.705-.035-.141-.102-.254-.146-.377-.021-.062-.048-.146-.079-.211h-.001a3.57 3.57 0 0 0-.552-.846l-8.713-8.371c-.694-.688-1.624-.854-2.074-.894l-.009-.001a1.152 1.152 0 0 0-.198-.019H6.265c-1.658 0-3 1.351-3 3v26c0 1.65 1.342 3 3 3h21c1.656 0 3-1.35 3-3V17.036c.002-.044-.003-.088-.003-.142zm-2.991 17.591h-21v-26h10.473v4.108c0 3.313 2.69 6 6 6h4.527v15.892zm-4.536-18.884c-1.646 0-3-1.351-3-3V8.956l7.036 6.646h-4.036z"/></svg>