<svg version="1" xmlns="http://www.w3.org/2000/svg" width="66.667" height="66.667" viewBox="0 0 50 50"><path d="M33.1 6.4c-.6.7-2.2 3.9-3.5 7.1-2.5 6.3-3.6 5.7-3.6-2.1 0-4.3-.1-4.5-2.6-4.2-2.4.3-3 1.4-6.9 12.3-2.3 6.6-5.6 15-7.3 18.7C6.3 44.6 6.2 45 8 45c1.1 0 2-.5 2-1 0-.6.6-1 1.3-1 1.2 0 6.5-10 9.8-18.5l1.1-3 1.2 3c.7 2.1 1.7 3 2.9 2.7.9-.2 1.7-1 1.7-1.8s.9-2.3 2-3.4c1.9-1.9 1.9-1.9 2.5 1.8C34.1 34 36.4 42 37.6 42c.8 0 1.4 1 1.4 2.2 0 1.2.3 1.9.6 1.5 1.1-1-1.8-39.1-3-39.9-1.6-1.1-2.2-1-3.5.6z"/></svg>