<svg version="1.0" xmlns="http://www.w3.org/2000/svg" width="93.333" height="93.333" viewBox="0 0 70 70"><path d="M54.5 6.2C50 16.1 47 24.3 47.7 25.3c.3.6.1.7-.5.3-1.5-.9-1.5-.5.2 3.5l1.4 3.2 3.1-5.4c1.7-3 3.1-5 3.1-4.4.2 3.4 1.1 12.3 1.4 14 .2 1.1.9 5.5 1.6 9.8.8 5 1.6 7.4 2.1 6.5.6-.8.9 0 1 2.4.1 2.1.3 4.2.4 4.8.1.5.3 1.9.4 3.1 0 1.1.5 1.8 1 1.5.5-.4 1.2 0 1.5.6.3.7.5-.1.3-1.9-.5-4.8 1-3 1.7 2.2.4 2.5 1.2 4.3 1.7 4 .5-.4.7-1 .5-1.3-.2-.4-.7-5.5-1.1-11.2-.4-5.8-.8-11.6-1.1-13-.2-1.4-.7-10.6-1-20.5-.4-9.9-1.1-19-1.5-20.3C63.3 1.6 62.2 1 60 1c-2.7 0-3.3.6-5.5 5.2zm7.2 26c-.3.8-.6.5-.6-.6-.1-1.1.2-1.7.5-1.3.3.3.4 1.2.1 1.9z"/><path d="M34.5 4c-.3.5-3.2 8.7-6.4 18.2-3.3 9.5-8.9 24-12.5 32.2-6.9 15.6-7.5 17.2-5.1 14 1.4-1.9 1.4-1.9 1.5.1 0 1.8.3 1.6 2.6-1 1.4-1.7 2.2-2.4 1.8-1.6-.4.9-.2 1.2.6.9 1.9-.6 10-16.4 15.3-29.8 2.6-6.3 4.6-10.9 4.7-10.3.1 3.6 3.4 12.3 4.5 12 .6-.1.9-.6.7-1.1-.2-.5.3-.4 1.1.2 1.1.9 1.3.6 1.2-1.6-.1-1.5 0-1.9.2-1 .2 1 .9 1.8 1.4 1.8.6 0 .8-.8.5-1.8-.2-.9-.8-2.8-1.1-4.1-.5-1.7-.4-2.1.5-1.6.7.4.6-.2-.3-1.6-1.8-2.8-4.2-16.7-3.5-20.3.3-1.4.1-2.3-.3-2-.5.3-.9-.2-.9-1.2 0-1.3-.3-1.4-1.4-.5-1 .8-1.6.9-2.1.1-.8-1.3-2.2-1.3-3 0z"/></svg>