<?xml version="1.0" standalone="no"?>
<!DOCTYPE svg PUBLIC "-//W3C//DTD SVG 20010904//EN"
 "http://www.w3.org/TR/2001/REC-SVG-20010904/DTD/svg10.dtd">
<svg version="1.0" xmlns="http://www.w3.org/2000/svg"
 width="50.000000pt" height="50.000000pt" viewBox="0 0 50.000000 50.000000"
 preserveAspectRatio="xMidYMid meet">
<g transform="translate(0.000000,50.000000) scale(0.100000,-0.100000)"
fill="#045afa" stroke="none">
<path d="M331 436 c-6 -7 -22 -39 -35 -71 -25 -63 -36 -57 -36 21 0 43 -1 45
-26 42 -24 -3 -30 -14 -69 -123 -23 -66 -56 -150 -73 -187 -29 -64 -30 -68
-12 -68 11 0 20 5 20 10 0 6 6 10 13 10 12 0 65 100 98 185 l11 30 12 -30 c7
-21 17 -30 29 -27 9 2 17 10 17 18 0 8 9 23 20 34 19 19 19 19 25 -18 16 -102
39 -182 51 -182 8 0 14 -10 14 -22 0 -12 3 -19 6 -15 11 10 -18 391 -30 399
-16 11 -22 10 -35 -6z"/>
</g>
</svg>
