<?xml version="1.0" standalone="no"?>
<!DOCTYPE svg PUBLIC "-//W3C//DTD SVG 20010904//EN"
 "http://www.w3.org/TR/2001/REC-SVG-20010904/DTD/svg10.dtd">
<svg version="1.0" xmlns="http://www.w3.org/2000/svg"
 width="50.000000pt" height="50.000000pt" viewBox="0 0 50.000000 50.000000"
 preserveAspectRatio="xMidYMid meet">
<g transform="translate(0.000000,50.000000) scale(0.100000,-0.100000)"
fill="#045afa" stroke="none">
<path d="M290 441 c-8 -6 -17 -8 -21 -5 -12 7 -90 -87 -115 -139 -26 -57 -32
-139 -13 -181 27 -59 108 -54 180 11 31 28 38 40 33 59 -4 15 0 29 10 39 17
18 20 31 9 38 -9 5 -129 -10 -152 -18 -20 -8 17 -34 48 -35 25 0 25 0 -9 -35
-56 -58 -86 -43 -69 35 13 56 33 93 76 141 20 22 37 48 38 57 0 10 4 23 9 30
9 14 -3 16 -24 3z"/>
</g>
</svg>
