<?xml version="1.0" standalone="no"?>
<!DOCTYPE svg PUBLIC "-//W3C//DTD SVG 20010904//EN"
 "http://www.w3.org/TR/2001/REC-SVG-20010904/DTD/svg10.dtd">
<svg version="1.0" xmlns="http://www.w3.org/2000/svg"
 width="32.000000pt" height="32.000000pt" viewBox="0 0 32.000000 32.000000"
 preserveAspectRatio="xMidYMid meet">
<metadata>
Created by potrace 1.15, written by Peter Selinger 2001-2017
</metadata>
<g transform="translate(0.000000,32.000000) scale(0.100000,-0.100000)"
fill="#045afa" stroke="none">
<path d="M94 224 c-37 -63 -53 -111 -54 -161 0 -32 4 -43 15 -43 9 0 15 9 16
23 1 31 7 56 23 102 l15 40 1 -47 c0 -67 25 -65 79 7 23 30 44 55 46 55 2 0
-3 -16 -11 -36 -20 -47 -15 -98 9 -102 14 -3 18 1 13 15 -3 10 9 55 28 100 18
46 31 85 28 88 -17 16 -51 -2 -103 -56 l-58 -61 15 53 c13 43 13 53 2 60 -25
16 -37 9 -64 -37z"/>
</g>
</svg>
